/vscmnt/brussel_pixiu_data/_data_brussel/112/vsc11236/PredSimResults/SUBJ11opt3D/expIG/worker_10.mot
version=1
nRows=6
nColumns=50
inDegrees=yes
endheader
                time	         pelvis_tilt	         pelvis_list	     pelvis_rotation	           pelvis_tx	           pelvis_ty	           pelvis_tz	       hip_flexion_r	     hip_adduction_r	      hip_rotation_r	        knee_angle_r	       ankle_angle_r	         mtp_angle_r	       hip_flexion_l	     hip_adduction_l	      hip_rotation_l	        knee_angle_l	       ankle_angle_l	         mtp_angle_l	    lumbar_extension	      lumbar_bending	     lumbar_rotation	 ercspn_r/activation	 intobl_r/activation	 extobl_r/activation	    abd_r/activation	    add_r/activation	hamstrings_r/activation	bifemsh_r/activation	glut_max_r/activation	iliopsoas_r/activation	rect_fem_r/activation	  vasti_r/activation	gastroc_r/activation	 soleus_r/activation	tib_ant_r/activation	 ercspn_l/activation	 intobl_l/activation	 extobl_l/activation	    abd_l/activation	    add_l/activation	hamstrings_l/activation	bifemsh_l/activation	glut_max_l/activation	iliopsoas_l/activation	rect_fem_l/activation	  vasti_l/activation	gastroc_l/activation	 soleus_l/activation	tib_ant_l/activation	
          0.00000000	         -6.86518700	         -3.24784428	          8.40626601	          0.00000000	          0.92677317	         -0.00704428	         36.02302535	         -0.87120523	         -7.78932983	         -8.14709699	          3.41452491	          0.29065076	        -14.04030968	         -4.52001469	          1.60898863	        -11.42236508	          7.94079271	         38.35584426	        -13.07143721	          1.62347462	         -1.90376537	          0.07369734	          0.23635673	          0.02353980	          0.00999999	          0.23484750	          0.07844413	          0.23352687	          0.06857870	          0.14083170	          0.02690631	          0.00999999	          0.01671404	          0.00999999	          0.54422726	          0.03521573	          0.00999999	          0.00999999	          0.02947064	          0.02093580	          0.01096449	          0.28687670	          0.01983546	          0.11402524	          0.01671404	          0.00999999	          0.19816237	          0.31119433	          0.01408383	
          0.01120523	         -6.85805471	         -3.40949640	          8.59297696	          0.02119809	          0.92443203	         -0.00649112	         36.25230703	         -0.68859017	         -7.88296737	        -10.43264908	          2.67207962	          0.28442556	        -15.10183721	         -4.92209644	          1.29370639	        -11.58966538	          6.45914919	         40.30263460	        -12.57053512	          2.05994878	         -2.14719449	          0.06209994	          0.19916239	          0.01983545	          0.00999999	          0.29463483	          0.06609975	          0.19677785	          0.21555756	          0.11866968	          0.02267219	          0.00999999	          0.01408383	          0.01186753	          0.59571426	          0.06332151	          0.00999999	          0.00999999	          0.02483298	          0.13805924	          0.01216330	          0.24173227	          0.01671404	          0.25179850	          0.01408383	          0.01000000	          0.16697849	          0.27152876	          0.01186753	
          0.02241046	         -6.83048806	         -3.53826782	          8.73196390	          0.04265828	          0.92230037	         -0.00588852	         36.36712673	         -0.54316078	         -7.91557329	        -12.85308500	          2.19596360	          0.21879263	        -15.96922681	         -5.27298774	          0.93365309	        -12.15766267	          4.92038378	         42.14372377	        -12.06166764	          2.46106347	         -2.37518687	          0.05232757	          0.16782114	          0.01671404	          0.12182515	          0.34893740	          0.05953913	          0.16581184	          0.24422311	          0.09999519	          0.01910438	          0.00999999	          0.01186753	          0.00999999	          0.69271466	          0.08021293	          0.00999999	          0.00999999	          0.02092513	          0.12035033	          0.01024922	          0.20369201	          0.01408383	          0.39527187	          0.01186753	          0.01186753	          0.14070188	          0.22879956	          0.00999999	
          0.03361569	         -6.78617268	         -3.62659386	          8.82115406	          0.06402024	          0.92059216	         -0.00519861	         36.44969752	         -0.41335122	         -7.96069495	        -15.23578902	          1.66949074	          0.17432482	        -16.47230642	         -5.56558855	          0.56732675	        -13.38200988	          3.38825214	         43.77011010	        -11.59006657	          2.81694728	         -2.58117343	          0.08333633	          0.14141192	          0.01408383	          0.16784158	          0.44036520	          0.05016974	          0.13971882	          0.30219482	          0.08425942	          0.01609801	          0.00999999	          0.00999999	          0.00999999	          0.74482774	          0.09691007	          0.00999999	          0.00999999	          0.01763224	          0.16965392	          0.01408382	          0.17519707	          0.01186753	          0.52459928	          0.00999999	          0.00999999	          0.11856029	          0.19279446	          0.00999999	
          0.04482092	         -6.72354716	         -3.68294513	          8.86193566	          0.08507570	          0.91940117	         -0.00443679	         36.57907349	         -0.29989498	         -8.01255528	        -17.73968922	          1.33860990	          0.10422023	        -16.48556470	         -5.80911893	          0.20787720	        -15.46609895	          1.94367247	         45.00142066	        -11.17820354	          3.14278726	         -2.75607246	          0.10836466	          0.11915859	          0.01186753	          0.20835044	          0.48233538	          0.04227477	          0.11773193	          0.34234457	          0.07099991	          0.01356474	          0.04624910	          0.00999999	          0.00999999	          0.74319968	          0.14855891	          0.00999999	          0.00999999	          0.01485754	          0.21019463	          0.01186752	          0.15288301	          0.00999999	          0.54427269	          0.00999999	          0.00999999	          0.09990301	          0.16245530	          0.00999999	
          0.05602616	         -6.64315862	         -3.71948636	          8.85562929	          0.10573657	          0.91881628	         -0.00363289	         36.71881137	         -0.19143312	         -8.06329355	        -20.33747589	          1.45543906	          0.03380551	        -15.94465656	         -6.02316292	         -0.15488422	        -18.51644023	          0.68561578	         45.46088255	        -10.82822205	          3.45594344	         -2.89273925	          0.09131186	          0.10040717	          0.00999999	          0.22319333	          0.45770865	          0.03562219	          0.09920501	          0.32411483	          0.05982699	          0.01143013	          0.11181746	          0.00999999	          0.00999999	          0.70711382	          0.19115142	          0.00999999	          0.00999999	          0.01251948	          0.21746827	          0.00999999	          0.13320407	          0.00999999	          0.45862307	          0.00999999	          0.00999999	          0.08418175	          0.13689048	          0.00999999	
